<?xml version="1.0" encoding="UTF-8" standalone="no"?>
<!-- Created with Inkscape (http://www.inkscape.org/) -->

<svg
   xmlns:dc="http://purl.org/dc/elements/1.1/"
   xmlns:cc="http://creativecommons.org/ns#"
   xmlns:rdf="http://www.w3.org/1999/02/22-rdf-syntax-ns#"
   xmlns:svg="http://www.w3.org/2000/svg"
   xmlns="http://www.w3.org/2000/svg"
   xmlns:sodipodi="http://sodipodi.sourceforge.net/DTD/sodipodi-0.dtd"
   xmlns:inkscape="http://www.inkscape.org/namespaces/inkscape"
   width="32"
   height="32"
   viewBox="0 0 8.4666665 8.4666669"
   version="1.1"
   id="svg1158"
   inkscape:version="0.92.3 (2405546, 2018-03-11)"
   sodipodi:docname="Email.svg">
  <defs
     id="defs1152" />
  <sodipodi:namedview
     id="base"
     pagecolor="#ffffff"
     bordercolor="#666666"
     borderopacity="1.0"
     inkscape:pageopacity="0.0"
     inkscape:pageshadow="2"
     inkscape:zoom="15.839192"
     inkscape:cx="23.524141"
     inkscape:cy="19.696699"
     inkscape:document-units="mm"
     inkscape:current-layer="layer1"
     showgrid="false"
     units="px"
     inkscape:pagecheckerboard="true"
     inkscape:window-width="1920"
     inkscape:window-height="1025"
     inkscape:window-x="0"
     inkscape:window-y="27"
     inkscape:window-maximized="1" />
  <metadata
     id="metadata1155">
    <rdf:RDF>
      <cc:Work
         rdf:about="">
        <dc:format>image/svg+xml</dc:format>
        <dc:type
           rdf:resource="http://purl.org/dc/dcmitype/StillImage" />
        <dc:title></dc:title>
      </cc:Work>
    </rdf:RDF>
  </metadata>
  <g
     inkscape:label="Layer 1"
     inkscape:groupmode="layer"
     id="layer1"
     transform="translate(0,-288.53332)">
    <path
       style="opacity:1;fill:#fcfdff;fill-opacity:1;fill-rule:evenodd;stroke:none;stroke-width:1.33218598;stroke-linecap:butt;stroke-linejoin:round;stroke-miterlimit:4;stroke-dasharray:none;stroke-dashoffset:0;stroke-opacity:1"
       d="M 4.2334168,288.53332 A 4.2333827,4.2333826 0 0 0 8.3495276e-5,292.76666 4.2333827,4.2333826 0 0 0 4.2334168,296.99999 4.2333827,4.2333826 0 0 0 8.4667501,292.76666 4.2333827,4.2333826 0 0 0 4.2334168,288.53332 Z m 0.1309637,1.09888 c 0.4823348,0 0.9299218,0.0987 1.3417263,0.29662 0.4140798,0.19794 0.7609255,0.479 1.0407703,0.84303 0.1706375,0.22296 0.2998232,0.46515 0.3885543,0.7268 0.091006,0.26164 0.1370349,0.53196 0.1370349,0.8118 0,0.59837 -0.181184,1.0705 -0.5429351,1.41632 -0.3617512,0.34582 -0.8607965,0.52581 -1.4978421,0.53946 v -0.52559 c -0.13651,0.1752 -0.2934859,0.30525 -0.4709487,0.38942 -0.1751873,0.0819 -0.3805798,0.1223 -0.6149215,0.1223 -0.3913283,0 -0.7091893,-0.14113 -0.954907,-0.42325 -0.2434423,-0.28439 -0.365137,-0.65339 -0.365137,-1.10842 0,-0.45503 0.1228884,-0.82489 0.3686061,-1.10928 0.2457176,-0.28441 0.5623846,-0.42672 0.9514379,-0.42672 0.2343417,0 0.4409283,0.0428 0.6183911,0.12922 0.1774626,0.0842 0.3332445,0.21305 0.4674791,0.38595 v -0.44666 h 0.4874273 v 2.51172 c 0.332174,-0.05 0.5914124,-0.20192 0.7779759,-0.45446 0.1888386,-0.25482 0.2836099,-0.58343 0.2836099,-0.98614 0,-0.24343 -0.036476,-0.47217 -0.1092808,-0.68603 -0.07053,-0.21387 -0.1787635,-0.41123 -0.3243737,-0.59324 -0.236617,-0.29805 -0.5251668,-0.52559 -0.8664413,-0.68258 -0.3389996,-0.15926 -0.7088589,-0.23938 -1.1092878,-0.23938 -0.2798452,0 -0.5486363,0.0377 -0.8057296,0.11276 -0.2570937,0.0728 -0.494512,0.18224 -0.7129278,0.32785 -0.3572008,0.23206 -0.6370652,0.53646 -0.8395548,0.91414 -0.2002142,0.37539 -0.3000886,0.78293 -0.3000886,1.22203 0,0.36176 0.064592,0.70111 0.1942771,1.01735 0.1319592,0.31625 0.321829,0.59492 0.5698217,0.83609 0.238892,0.23661 0.5151745,0.41574 0.8291468,0.5386 0.3139727,0.12513 0.6497449,0.18821 1.0069457,0.18821 0.2934962,0 0.581719,-0.0499 0.8638392,-0.15005 0.2843955,-0.0978 0.5448281,-0.23896 0.7814452,-0.42325 l 0.3070271,0.37815 c -0.2843955,0.22069 -0.5947651,0.38961 -0.9314893,0.50565 -0.3344494,0.1183 -0.6749974,0.17692 -1.0208222,0.17692 -0.4209055,0 -0.8176883,-0.0745 -1.1908149,-0.22463 -0.3731267,-0.14789 -0.7053166,-0.36435 -0.9965378,-0.64875 -0.2912207,-0.28439 -0.5127896,-0.613 -0.6652255,-0.98613 -0.152436,-0.3754 -0.2289695,-0.77815 -0.2289695,-1.20816 0,-0.41408 0.077728,-0.80847 0.2324387,-1.18387 0.1547111,-0.37541 0.3750859,-0.70607 0.6617563,-0.99047 0.2934961,-0.28894 0.6328506,-0.50932 1.0173532,-0.66176 0.3845026,-0.15471 0.7911644,-0.23157 1.2211709,-0.23157 z m -0.091935,2.04685 c -0.2752949,0 -0.4944754,0.0935 -0.6582873,0.28014 -0.1615369,0.18657 -0.2428464,0.4407 -0.2428464,0.7615 0,0.32534 0.08131,0.581 0.2428464,0.76757 0.1615364,0.18428 0.3831052,0.27666 0.6652258,0.27666 0.2798452,0 0.4990258,-0.0935 0.6582873,-0.28013 0.1615364,-0.18657 0.2428464,-0.44103 0.2428464,-0.7641 0,-0.31852 -0.082504,-0.57146 -0.2463158,-0.75803 -0.1638119,-0.18884 -0.3841865,-0.28361 -0.6617564,-0.28361 z"
       id="path1707"
       inkscape:connector-curvature="0" />
  </g>
</svg>
